<svg width="16" height="16" viewBox="0 0 16 16" fill="none" xmlns="http://www.w3.org/2000/svg">
<path fill-rule="evenodd" clip-rule="evenodd" d="M7.539 14.841L7.542 14.844L7.544 14.846C7.67522 14.9454 7.83535 14.9993 8 14.9993C8.16465 14.9993 8.32478 14.9454 8.456 14.846L8.458 14.844L8.461 14.841L8.473 14.832C8.53744 14.7824 8.60079 14.7314 8.663 14.679C9.40862 14.0505 10.0936 13.3535 10.709 12.597C11.81 11.235 13 9.255 13 7C13 5.67392 12.4732 4.40215 11.5355 3.46447C10.5979 2.52678 9.32608 2 8 2C6.67392 2 5.40215 2.52678 4.46447 3.46447C3.52678 4.40215 3 5.67392 3 7C3 9.255 4.19 11.235 5.292 12.597C5.90739 13.3535 6.59239 14.0505 7.338 14.679C7.4003 14.7309 7.46331 14.7819 7.527 14.832L7.539 14.842V14.841ZM8 8.5C8.19698 8.5 8.39204 8.4612 8.57403 8.38582C8.75601 8.31044 8.92137 8.19995 9.06066 8.06066C9.19995 7.92137 9.31044 7.75601 9.38582 7.57403C9.4612 7.39204 9.5 7.19698 9.5 7C9.5 6.80302 9.4612 6.60796 9.38582 6.42597C9.31044 6.24399 9.19995 6.07863 9.06066 5.93934C8.92137 5.80005 8.75601 5.68956 8.57403 5.61418C8.39204 5.5388 8.19698 5.5 8 5.5C7.60218 5.5 7.22064 5.65804 6.93934 5.93934C6.65804 6.22064 6.5 6.60218 6.5 7C6.5 7.39782 6.65804 7.77936 6.93934 8.06066C7.22064 8.34196 7.60218 8.5 8 8.5Z" fill="black"/>
</svg>
