<svg width="14" height="14" viewBox="0 0 14 14" fill="none" xmlns="http://www.w3.org/2000/svg">
<g clip-path="url(#clip0_107_1971)">
<path fill-rule="evenodd" clip-rule="evenodd" d="M0 2C0 0.893333 0.893333 0 2 0H2.91333C3.48667 0 3.98667 0.393333 4.12667 0.946667L4.86 3.89333C4.98 4.38 4.8 4.89333 4.4 5.2L3.54 5.84667C3.44667 5.91333 3.43333 6.01333 3.45333 6.08C4.21333 8.15333 5.84667 9.78 7.92 10.5467C7.98667 10.5733 8.08667 10.5467 8.15333 10.46L8.8 9.6C9.1 9.2 9.61333 9.01333 10.1 9.14L13.0467 9.88C13.6 10.02 13.9933 10.52 13.9933 11.0933V12.0067C13.9933 13.1133 13.1 14.0067 11.9933 14.0067H10.4933C4.7 14 0 9.3 0 3.5V2Z" fill="black"/>
</g>
<defs>
<clipPath id="clip0_107_1971">
<rect width="14" height="14" fill="white"/>
</clipPath>
</defs>
</svg>
